<?xml version="1.0" encoding="UTF-8"?>
<svg width="334px" height="311px" viewBox="0 0 334 311" version="1.1" xmlns="http://www.w3.org/2000/svg" xmlns:xlink="http://www.w3.org/1999/xlink">
    <title>Group</title>
    <g id="Page-1" stroke="none" stroke-width="1" fill="none" fill-rule="evenodd">
        <g id="Gem-Mine-Logo-Template-(1)" transform="translate(-613.000000, -287.000000)" fill-rule="nonzero">
            <g id="Group" transform="translate(780.000000, 520.000000) scale(-1, 1) rotate(-180.000000) translate(-780.000000, -520.000000) translate(0.000000, 0.000000)">
                <path d="M844.043979,547.255986 L844.046646,675.353316 L779.994647,739.402648 L715.945315,675.353316 L715.946649,547.255986 L683.92665,579.277319 L683.92665,444.645322 L693.898649,445.658656 C708.794649,447.171989 724.039982,448.305322 739.215982,449.027989 L747.843981,449.437322 L747.974648,449.447989 L757.273314,449.694655 C761.851981,449.817322 766.481314,449.903989 771.031981,449.951989 L779.994647,450.045322 L788.958647,449.951989 C793.51198,449.903989 798.14398,449.817322 802.725313,449.694655 L812.025313,449.447989 L812.15598,449.437322 L820.783979,449.027989 C835.961312,448.305322 851.206645,447.171989 866.099978,445.658656 L876.074645,444.645322 L876.074645,579.267986 L844.043979,547.255986" id="path16" fill="#FFFFFF"></path>
                <path d="M685.737316,452.987989 L685.737316,447.423989 C699.581316,448.830655 714.926649,450.037322 731.538648,450.827989 L731.538648,452.987989 L731.670648,452.987989 L731.670648,504.229321 L685.737316,550.162653 L685.737316,452.987989" id="path18" fill="#D02A9D"></path>
                <path d="M717.757315,543.75732 L749.786648,511.738654 L749.786648,451.505322 C754.343981,451.625322 758.978648,451.713322 763.690648,451.761322 L763.690648,600.307985 L717.757315,646.239984 L717.757315,543.75732" id="path20" fill="#41BFE6"></path>
                <path d="M843.201312,533.603987 L813.837313,504.229321 L813.837313,452.987989 L813.96798,452.987989 L813.96798,450.827989 C830.579979,450.037322 845.927979,448.830655 859.767979,447.423989 L859.767979,452.987989 L859.767979,550.162653 L843.201312,533.603987" id="path22" fill="#7D5BB3"></path>
                <polygon id="path24" fill="#41BFE6" points="781.806647 710.289316 781.806647 625.923984 823.990646 668.10665"></polygon>
                <polygon id="path26" fill="#41BFE6" points="763.690648 625.923984 763.690648 710.289316 721.507982 668.10665"></polygon>
                <path d="M827.741313,646.239984 L781.806647,600.307985 L781.806647,451.761322 C786.52398,451.713322 798.166647,451.625322 802.725313,451.505322 L802.966647,518.983987 L827.741313,543.75732 L827.741313,646.239984" id="path28" fill="#41BFE6"></path>
                <path d="M821.213313,458.074655 L821.213313,460.234655 L821.083979,460.234655 L821.083979,511.474654 L850.447979,540.850653 L867.015978,557.407986 L867.015978,460.234655 L867.015978,454.671989 C853.173312,456.078655 837.825312,457.285322 821.213313,458.074655 L821.213313,458.074655 Z M789.053314,459.009322 L789.053314,607.554651 L834.986646,653.48665 L834.986646,551.003986 L802.966647,518.983987 L802.966647,458.750655 C798.406647,458.871989 793.76798,458.959989 789.053314,459.009322 L789.053314,459.009322 Z M757.031981,458.750655 L757.031981,518.983987 L725.005315,551.003986 L725.005315,653.48665 L770.937314,607.554651 L770.937314,459.009322 C766.223981,458.959989 761.589314,458.871989 757.031981,458.750655 Z M692.983983,454.671989 L692.983983,557.407986 L738.917315,511.474654 L738.917315,460.234655 L738.786648,460.234655 L738.786648,458.074655 C722.173315,457.285322 706.825316,456.077322 692.983983,454.671989 L692.983983,454.671989 Z M770.937314,717.535982 L770.937314,633.169318 L728.754648,675.353316 L770.937314,717.535982 Z M789.053314,717.535982 L831.237313,675.353316 L789.053314,633.169318 L789.053314,717.535982 Z M885.133311,452.630655 L885.133311,601.149318 L853.101312,569.119986 L853.101312,679.10265 L789.053314,743.151981 L779.994647,752.209315 L770.937314,743.151981 L706.889316,679.10265 L706.889316,569.119986 L674.867983,601.149318 L674.867983,452.630655 C636.277317,447.837322 613.333318,442.118656 613.333318,442.118656 L674.867983,442.118656 L692.983983,442.118656 L738.786648,442.118656 L757.031981,442.118656 L770.937314,442.118656 L779.999981,442.118656 L789.053314,442.118656 L802.966647,442.118656 L821.213313,442.118656 L867.015978,442.118656 L885.133311,442.118656 L946.666643,442.118656 C946.666643,442.118656 923.722644,447.837322 885.133311,452.630655" id="path30" fill="#141E20"></path>
            </g>
        </g>
    </g>
</svg>