<?xml version="1.0" encoding="UTF-8"?>
<svg width="148px" height="103px" viewBox="0 0 148 103" version="1.1" xmlns="http://www.w3.org/2000/svg" xmlns:xlink="http://www.w3.org/1999/xlink">
    <title>Artboard</title>
    <defs>
        <linearGradient x1="42.9962048%" y1="57.8102226%" x2="77.4923508%" y2="24.6268366%" id="linearGradient-1">
            <stop stop-color="#8572B4" offset="0%"></stop>
            <stop stop-color="#CAB7E4" offset="100%"></stop>
        </linearGradient>
        <linearGradient x1="111.94077%" y1="74.6796574%" x2="49.8339476%" y2="50.9017089%" id="linearGradient-2">
            <stop stop-color="#867076" offset="0%"></stop>
            <stop stop-color="#D6CBCE" offset="100%"></stop>
        </linearGradient>
        <linearGradient x1="47.7135506%" y1="56.5749743%" x2="55.8223371%" y2="25.0935922%" id="linearGradient-3">
            <stop stop-color="#7B452C" offset="0%"></stop>
            <stop stop-color="#6C4437" offset="100%"></stop>
        </linearGradient>
        <polygon id="path-4" points="1.77635684e-15 4.4004 2.01839374 15.982047 19.3912827 21.3785 24.9243804 2.91705 9.75177763 1.18298427e-15"></polygon>
        <linearGradient x1="54.9301149%" y1="33.8641949%" x2="40.5852912%" y2="67.6920565%" id="linearGradient-6">
            <stop stop-color="#BF3FC9" offset="0%"></stop>
            <stop stop-color="#8F288F" offset="100%"></stop>
        </linearGradient>
        <linearGradient x1="49.6172096%" y1="34.06158%" x2="50.9279056%" y2="86.6114675%" id="linearGradient-7">
            <stop stop-color="#BF3FC9" offset="0%"></stop>
            <stop stop-color="#8F288F" offset="100%"></stop>
        </linearGradient>
        <linearGradient x1="43.0882507%" y1="20.6375647%" x2="53.3327062%" y2="71.788319%" id="linearGradient-8">
            <stop stop-color="#BF3FC9" offset="0%"></stop>
            <stop stop-color="#8F288F" offset="100%"></stop>
        </linearGradient>
        <linearGradient x1="54.4498573%" y1="57.588787%" x2="77.0932529%" y2="101.586068%" id="linearGradient-9">
            <stop stop-color="#E165F1" offset="0%"></stop>
            <stop stop-color="#9E1DA3" offset="100%"></stop>
        </linearGradient>
        <linearGradient x1="59.5453959%" y1="5.81364634%" x2="52.1590883%" y2="39.7383978%" id="linearGradient-10">
            <stop stop-color="#B53CBC" offset="0%"></stop>
            <stop stop-color="#811283" offset="100%"></stop>
        </linearGradient>
        <polygon id="path-11" points="22.9540436 22.1829936 32.2797436 8.00769358 39.0852436 7.33919358 41.1737436 13.3591936 31.7577436 28.4326936 24.0542436 28.3474936"></polygon>
        <linearGradient x1="54.1288628%" y1="36.0510493%" x2="41.6405166%" y2="83.5877132%" id="linearGradient-13">
            <stop stop-color="#E75CFB" offset="0%"></stop>
            <stop stop-color="#C900E4" offset="100%"></stop>
        </linearGradient>
        <polygon id="path-14" points="24.951669 12.6288366 22.2362564 33.0996 36.715 38.0800442 44.6521517 26.5088 41.5999714 7.45040642"></polygon>
        <linearGradient x1="51.7363426%" y1="32.4616714%" x2="45.9869561%" y2="90.5180742%" id="linearGradient-16">
            <stop stop-color="#BF3FC9" offset="0%"></stop>
            <stop stop-color="#8E0F93" offset="100%"></stop>
        </linearGradient>
    </defs>
    <g id="Artboard" stroke="none" stroke-width="1" fill="none" fill-rule="evenodd">
        <g id="chestruby2" transform="translate(35.000000, 0.000000)">
            <path d="M44.5938,101.9904 L72.0392,98.1358 C75.5827739,97.6381642 78.9913292,96.4380405 82.065,94.6058 L94.7355,87.0522 C96.6050596,85.9377031 98.7118409,85.2814864 100.8836,85.1372 L109.2873,84.5789 C110.295168,84.512423 111.191669,83.9150601 111.6411,83.0105 L111.6411,83.0105 C112.099295,82.0895987 112.145685,81.0176388 111.768759,80.0605971 C111.391832,79.1035555 110.626915,78.3511249 109.6638,77.99 L67.4478,62.1547 L38.3775,84.7471 L44.5938,101.9904 Z" id="Path" fill="url(#linearGradient-1)" fill-rule="nonzero"></path>
            <path d="M79.2781,45.3171 C79.2781,45.3171 95.7481,46.8171 100.3211,30.6931 C104.6903,15.2859 91.7796,7.4666 91.7796,7.4666 L44.7154,0.2633 L34.3938,34.6901 L79.2781,45.3171 Z" id="Path" fill="url(#linearGradient-2)" fill-rule="nonzero"></path>
            <path d="M79.2174,45.5731 C79.2294767,45.5759835 79.2417398,45.5780218 79.2541,45.5792 C79.2541,45.5792 95.9416,47.1005 100.5741,30.7647 C104.9993,15.1589 91.9157,7.2414 91.9157,7.2414 C91.8861419,7.22349436 91.8533546,7.21156864 91.8192,7.2063 L44.7548,0.003 C44.6249982,-0.0168873067 44.5003858,0.0619073514 44.4627,0.1877 L34.1416,34.6145 C34.1208151,34.6839393 34.1295753,34.7588758 34.1658159,34.8216487 C34.2020565,34.8844216 34.2625719,34.9294783 34.3331,34.9462 L79.2174,45.5731 Z M91.6864,7.7185 L44.9019,0.5585 L34.7263,34.4985 L79.3193,45.0562 C79.9154,45.1048 95.6407,46.2313 100.0678,30.6211 C104.2334,15.9312 92.492,8.2271 91.6864,7.7186 L91.6864,7.7185 Z" id="Shape"></path>
            <path d="M93.6964,16.1438 L85.6118,39.1738 C85.6118,39.1738 88.9471,39.3132 90.6801,37.9475 C96.0001,33.7549 98.6879,27.7639 96.6211,21.313 C95.3948,17.4852 93.6964,16.1438 93.6964,16.1438 Z" id="Path" fill="#804F3A" fill-rule="nonzero"></path>
            <path d="M94.2267,15.4723 C94.0097657,15.3010334 93.7234657,15.2450953 93.4580209,15.3221132 C93.192576,15.3991311 92.9806774,15.5996198 92.8891,15.8604 L84.8045,38.8904 C84.7146321,39.1462259 84.7513635,39.4295086 84.903505,39.6539548 C85.0556465,39.8784011 85.3051826,40.0174334 85.5761,40.0287 C85.5761,40.0287 89.2799,40.1406 91.2098,38.6197 C96.8238,34.1956 99.6169,27.8588 97.4361,21.052 C96.1069,16.9034 94.2267,15.4723 94.2267,15.4723 Z M94.0175,17.8123 L86.8263,38.2981 C88.0077184,38.2720276 89.1586445,37.9181255 90.1506,37.2759 C95.1773,33.3146 97.759,27.6694 95.8063,21.5745 C95.4036921,20.2372934 94.8005644,18.9688978 94.0175,17.8126 L94.0175,17.8123 Z" id="Shape"></path>
            <polygon id="Path" fill="#C08C4C" fill-rule="nonzero" points="1.86 49.925 33.602 36.62 77.408 47.842 48.246 71.55"></polygon>
            <path d="M1.7583,49.6819 C1.6621109,49.7221434 1.59873093,49.8153575 1.59662302,49.9196055 C1.59461815,50.0238535 1.65427278,50.1194945 1.7488,50.1635 L48.1348,71.7885 C48.2261813,71.831194 48.3339247,71.8179106 48.4122,71.7543 L77.5742,48.0471 C77.6513069,47.9843448 77.686511,47.883522 77.6652244,47.7864109 C77.6439377,47.6892998 77.5697873,47.6124473 77.4735,47.5877 L33.6678,36.3646 C33.6122614,36.3503194 33.5535754,36.3546041 33.5007,36.3768 L1.7583,49.6819 Z M2.5106,49.9376 L48.2078,71.2416 L76.8366,47.9678 L33.6228,36.8966 L2.5106,49.9376 Z" id="Shape"></path>
            <path d="M77.408,47.8424 L44.7154,63.3824 C39.4487,75.7116 40.0362,88.0408 44.7154,100.3699 L77.408,82.6468 L77.408,47.8424 Z" id="Path" fill="#804F3A" fill-rule="nonzero"></path>
            <path d="M77.6713001,47.8424 C77.6713001,47.7520736 77.6251298,47.6680179 77.5487782,47.6197552 C77.4724265,47.5714925 77.3766547,47.5657709 77.2951,47.6046 L44.6023,63.1442 C44.5443806,63.1718134 44.4985164,63.2195975 44.4733,63.2786 C39.1785,75.6735 39.7652,88.0686 44.4692,100.463 C44.4961198,100.534041 44.5524228,100.589984 44.6236342,100.616449 C44.6948456,100.642914 44.774019,100.637318 44.8408,100.6011 L77.5336,82.878 C77.6184529,82.8319457 77.6713001,82.7431454 77.6713001,82.6466 L77.6713001,47.8424 Z M44.8553,99.9943 L77.1448,82.4897 L77.1448,48.2591 L44.9187,63.5771 C39.7618,75.7161 40.3102,87.8548 44.8553,99.9943 L44.8553,99.9943 Z" id="Shape"></path>
            <polygon id="Path" fill="#9D5C3B" fill-rule="nonzero" points="44.715 63.382 1.86 49.925 1.86 86.912 44.715 100.37"></polygon>
            <path d="M44.9787,63.382 C44.9787,63.2669566 44.904076,63.1652124 44.7943,63.1308 L1.9389,49.6736 C1.85893494,49.6484731 1.77178334,49.6629365 1.70422136,49.7125465 C1.63665938,49.7621565 1.59679998,49.8409801 1.59679998,49.9248 L1.59679998,86.9123 C1.59679998,87.0273329 1.67144363,87.1290601 1.7812,87.1635 L44.6365,100.6207 C44.7164651,100.645827 44.8036167,100.631363 44.8711786,100.581753 C44.9387406,100.532144 44.9787,100.45332 44.9787,100.3695 L44.9787,63.382 Z M2.1234,86.7191 L44.4522,100.0109 L44.4522,63.5753 L2.1234,50.2834 L2.1234,86.7191 Z" id="Shape"></path>
            <path d="M3.3008,65.4245 L36.2472,75.2432 C36.7000735,75.3781508 37.1765992,75.1204235 37.31155,74.66755 C37.4465008,74.2146765 37.1887735,73.7381508 36.7359,73.6032 L3.7896,63.7845 C3.49544366,63.6932418 3.17493861,63.7671021 2.95039007,63.9778958 C2.72584152,64.1886894 2.63189562,64.5038925 2.70440226,64.8032231 C2.77690889,65.1025537 3.00468085,65.3398273 3.3008,65.4245 L3.3008,65.4245 Z" id="Path" fill="#6C4437" fill-rule="nonzero"></path>
            <path d="M3.9776,58.8877 L37.9924,69.1898 C38.4446936,69.3268218 38.9224281,69.0712436 39.05945,68.61895 C39.1964718,68.1666564 38.9408936,67.6889219 38.4886,67.5519 L4.4736,57.2498 C4.1802393,57.1586083 3.8605068,57.2316732 3.63587412,57.441236 C3.41124145,57.6507989 3.3161849,57.9646963 3.38681801,58.2636735 C3.45745113,58.5626508 3.68293325,58.8008212 3.9776,58.8877 L3.9776,58.8877 Z" id="Path" fill="#6C4437" fill-rule="nonzero"></path>
            <path d="M1.6156,66.7086 L34.5621,76.5271 C34.8562563,76.6183582 35.1767614,76.5444979 35.4013099,76.3337042 C35.6258585,76.1229106 35.7198044,75.8077075 35.6472977,75.5083769 C35.5747911,75.2090463 35.3470192,74.9717727 35.0509,74.8871 L2.1048,65.0685 C1.65400091,64.9395979 1.18342063,65.1974785 1.04949747,65.6468115 C0.915574317,66.0961445 1.16818901,66.5695724 1.616,66.7085 L1.6156,66.7086 Z" id="Path" fill="#D5966E" fill-rule="nonzero"></path>
            <path d="M3.4211,75.0788 L36.3676,84.8971 C36.8183991,85.0260021 37.2889794,84.7681215 37.4229025,84.3187885 C37.5568257,83.8694555 37.304211,83.3960276 36.8564,83.2571 L3.9099,73.4388 C3.61574366,73.3475418 3.29523861,73.4214021 3.07069007,73.6321958 C2.84614152,73.8429894 2.75219562,74.1581925 2.82470226,74.4575231 C2.89720889,74.7568537 3.12498085,74.9941273 3.4211,75.0788 L3.4211,75.0788 Z" id="Path" fill="#D5966E" fill-rule="nonzero"></path>
            <path d="M76.5617,62.1604 L48.6803,75.4604 C48.4016009,75.5903476 48.2140582,75.8598445 48.1890433,76.1663307 C48.1640283,76.472817 48.3053881,76.7691584 48.5593267,76.9425791 C48.8132653,77.1159998 49.1407297,77.1398297 49.4171,77.005 L77.2985,63.705 C77.7206009,63.4990743 77.8978425,62.9914217 77.6956372,62.567526 C77.4934319,62.1436303 76.9873577,61.9619307 76.5617,62.1604 L76.5617,62.1604 Z" id="Path" fill="#6C4437" fill-rule="nonzero"></path>
            <path d="M6.8959,74.4371 L39.8422,84.2558 C40.2929991,84.3847021 40.7635794,84.1268215 40.8975025,83.6774885 C41.0314257,83.2281555 40.778811,82.7547276 40.331,82.6158 L7.3848,72.7971 C7.09064366,72.7058418 6.77013861,72.7797021 6.54559007,72.9904958 C6.32104152,73.2012894 6.22709562,73.5164925 6.29960226,73.8158231 C6.37210889,74.1151537 6.59988085,74.3524273 6.896,74.4371 L6.8959,74.4371 Z" id="Path" fill="#6C4437" fill-rule="nonzero"></path>
            <path d="M74.8868,69.4798 L47.0048,84.0901 C46.5876895,84.3102021 46.4273052,84.8263019 46.6461961,85.2440493 C46.865087,85.6617966 47.3807193,85.8236778 47.7991,85.606 L75.6807,70.996 C76.0978105,70.7758979 76.2581948,70.2597981 76.0393039,69.8420507 C75.820413,69.4243034 75.3047807,69.2624222 74.8864,69.4801 L74.8868,69.4798 Z" id="Path" fill="#6C4437" fill-rule="nonzero"></path>
            <path d="M69.4289,74.3892 L41.5473,88.9992 C41.1301895,89.2193021 40.9698052,89.7354019 41.1886961,90.1531493 C41.407587,90.5708966 41.9232193,90.7327778 42.3416,90.5151 L70.2232,75.9051 C70.6403105,75.6849979 70.8006948,75.1688981 70.5818039,74.7511507 C70.362913,74.3334034 69.8472807,74.1715222 69.4289,74.3892 L69.4289,74.3892 Z" id="Path" fill="#B67D5F" fill-rule="nonzero"></path>
            <path d="M76.5572,63.8699 L56.5234,73.5708 C56.242211,73.7003934 56.0529594,73.9717733 56.0285314,74.2804236 C56.0041034,74.5890739 56.1483098,74.8868451 56.4056126,75.0590572 C56.6629154,75.2312694 56.9931753,75.2510572 57.2692,75.1108 L77.3031,65.4098 C77.7194187,65.1989501 77.8900245,64.6934098 77.686599,64.2734134 C77.4831735,63.853417 76.9807417,63.673863 76.5572,63.8698 L76.5572,63.8699 Z" id="Path" fill="#B67D5F" fill-rule="nonzero"></path>
            <path d="M75.7167,51.4534 L79.5511,47.8424 L79.5511,81.4791 C79.5511,82.4407298 79.0245217,83.3251491 78.1791,83.7834 L44.5938,101.9904 C39.7703,89.2804 39.1645,76.5711 44.5938,63.8615 L49.1862,62.0306 L49.1862,88.7219 C49.1861612,89.6128628 49.6591986,90.4368448 50.4286217,90.8860695 C51.1980448,91.3352942 52.1481307,91.3421972 52.924,90.9042 L73.9807,79.0176 C75.0533342,78.4120556 75.7167094,77.2757582 75.7167,76.044 L75.7167,51.4534 Z" id="Path" fill="#C0AFB4" fill-rule="nonzero"></path>
            <path d="M75.5362,51.2618 C75.4833777,51.3115704 75.4534222,51.3809239 75.4534,51.4535 L75.4534,76.044 C75.4534547,77.1807785 74.8412368,78.2294705 73.8513,78.7883 L52.7948,90.6749 C52.1004429,91.0668295 51.2502059,91.0606301 50.5616377,90.6586171 C49.8730696,90.2566041 49.449719,89.5192334 49.4497,88.7219 L49.4497,62.0306 C49.4496726,61.9433001 49.4063765,61.86169 49.3341074,61.812716 C49.2618383,61.7637421 49.1699939,61.7537728 49.0889,61.7861 L44.4964,63.6171 C44.4312802,63.6429549 44.379187,63.6937521 44.3517,63.7582 C38.8944,76.5334 39.4993,89.3087 44.3476,102.0839 C44.3745923,102.154931 44.4309344,102.210851 44.5021659,102.237309 C44.5733975,102.263767 44.6525832,102.258187 44.7194,102.222 C44.7194,102.222 71.8387,87.5201 78.3048,84.015 C79.2352223,83.5107075 79.8148,82.5373989 79.8148,81.4791 L79.8148,47.8424 C79.8148,47.7373432 79.7523527,47.6423391 79.6559087,47.60068 C79.5594648,47.5590209 79.447486,47.5790881 79.371,47.6507 L75.5362,51.2618 Z M79.2878,48.4518 L75.98,51.5671 L75.98,76.044 C75.9799437,77.3707588 75.2653702,78.5946665 74.11,79.2469 L53.0535,91.1334 C52.1961122,91.6173754 51.1462323,91.6097411 50.2959733,91.1133484 C49.4457143,90.6169557 48.9229407,89.7064537 48.9229,88.7219 L48.9229,62.4191 L44.7929,64.0656 C39.4777,76.5803 40.0446,89.0968 44.7329,101.6156 L78.0529,83.5525 C78.813827,83.1403445 79.2878,82.3444797 79.2878,81.4791 L79.2878,48.4518 Z" id="Shape"></path>
            <polygon id="Path" fill="#E2DADC" fill-rule="nonzero" points="79.278 45.317 91.78 7.467 44.715 0.263 34.394 34.69"></polygon>
            <path d="M79.2174,45.5731 C79.3503254,45.6046383 79.4852828,45.5292325 79.5281,45.3995 L92.0296,7.5495 C92.0538843,7.47594101 92.0445576,7.39542168 92.0041009,7.32936177 C91.9636443,7.26330186 91.8961599,7.21839964 91.8196,7.2066 L44.7548,0.003 C44.6249982,-0.0168873067 44.5003858,0.0619073514 44.4627,0.1877 L34.1416,34.6145 C34.1208151,34.6839393 34.1295753,34.7588758 34.1658159,34.8216487 C34.2020565,34.8844216 34.2625719,34.9294783 34.3331,34.9462 L79.2174,45.5731 Z M34.7262,34.4983 L79.1038,45.0051 L91.4319,7.6798 L44.9019,0.5582 L34.7262,34.4983 Z" id="Shape"></path>
            <polygon id="Path" fill="url(#linearGradient-3)" fill-rule="nonzero" points="76.198 39.174 85.294 10.75 48.109 4.89 40.746 30.595"></polygon>
            <path d="M76.1366,39.4301 C76.2707542,39.4626241 76.4072427,39.3859775 76.4493,39.2545 L85.5448,10.8297 C85.5681427,10.7565105 85.5583439,10.6767755 85.5179746,10.6114157 C85.4776053,10.5460559 85.4106952,10.5015956 85.3348,10.4897 L48.1498,4.6302 C48.0185064,4.60946038 47.8923662,4.68990696 47.8558,4.8177 L40.4925,30.5219 C40.4727882,30.5908547 40.4823584,30.6648665 40.5181633,30.7268312 C40.55427,30.7887958 40.6140904,30.833351 40.6838,30.8502 L76.1366,39.4301 Z M41.0748,30.4031 L76.0229,38.8607 L84.95,10.9618 L48.2979,5.1865 L41.0748,30.4031 Z" id="Shape"></path>
            <path d="M51.3048,23.78 L77.3602,29.059 C77.8233736,29.1528884 78.2749615,28.8535236 78.3688499,28.39035 C78.4627383,27.9271764 78.1633736,27.4755884 77.7002,27.3817 L51.6448,22.1027 C51.3451792,22.0419648 51.0359164,22.145689 50.8335078,22.3748007 C50.6310992,22.6039123 50.5662956,22.9236039 50.6635078,23.2134507 C50.76072,23.5032975 51.0051792,23.7192649 51.3048,23.78 L51.3048,23.78 Z" id="Path" fill="#8F573C" fill-rule="nonzero"></path>
            <path d="M50.6717,5.2941 C53.5678,10.2185 55.0062,14.0935 53.3561,19.9165 C51.7395,25.6208 46.5327,29.002 42.0541,30.9111 L40.7457,30.5945 L48.1088,4.8902 L50.6717,5.2941 Z" id="Path" fill="#6C4437" fill-rule="nonzero"></path>
            <path d="M50.8986,5.1606 C50.8587024,5.09266099 50.790438,5.04619713 50.7126,5.034 L48.1497,4.6302 C48.0184064,4.60946038 47.8922662,4.68990696 47.8557,4.8177 L40.4925,30.5219 C40.4727882,30.5908547 40.4820566,30.6648665 40.5181633,30.7268312 C40.55427,30.7887958 40.6140904,30.833351 40.6838,30.8502 L41.9921,31.1669 C42.0472115,31.1801599 42.1051256,31.1753571 42.1573,31.1532 C46.7002,29.2167 51.9696,25.7743 53.6093,19.9882 C55.2824,14.0843 53.8348,10.1535 50.8986,5.1606 Z M50.5075,5.5347 L48.2975,5.1865 L41.0748,30.4031 L42.0311,30.6345 C46.4272,28.7472 51.5194,25.4334 53.1031,19.8445 C54.7179,14.1451 53.3214,10.3402 50.5075,5.5347 Z" id="Shape"></path>
            <path d="M40.9406,31.4277 C46.843,30.0466 51.0371,26.7314 52.8298,22.0728 C54.6004,17.4716 54.0312,11.502 50.2709,4.699 C50.0422817,4.28536638 49.5216337,4.13538181 49.108,4.36400007 C48.6943664,4.59261832 48.5443818,5.11326634 48.773,5.5269 C52.2247,11.7716 52.8579,17.2345 51.233,21.4581 C49.6298,25.6244 45.8298,28.5261 40.5511,29.7613 C40.0909364,29.8689955 39.8052045,30.3293364 39.9129,30.7895 C40.0205956,31.2496636 40.4809364,31.5353955 40.9411,31.4277 L40.9406,31.4277 Z" id="Path" fill="#5D3A2D" fill-rule="nonzero"></path>
            <path d="M51.7155,11.2419 L82.6584,16.6219 C82.9604922,16.6762854 83.2685725,16.5646995 83.4657682,16.3294733 C83.6629639,16.0942472 83.7190629,15.7714194 83.6127836,15.4834572 C83.5065043,15.1954951 83.2541297,14.9865168 82.9514,14.9358 L52.0086,9.5558 C51.7074072,9.50342485 51.4011518,9.61571265 51.2051973,9.85036566 C51.0092427,10.0850187 50.9533591,10.4063875 51.0585973,10.6934157 C51.1638354,10.9804438 51.4142072,11.1895249 51.7154,11.2419 L51.7155,11.2419 Z" id="Path" fill="#5D3A2D" fill-rule="nonzero"></path>
            <path d="M52.7675,17.5062 L79.5624,22.9871 C79.8633435,23.0519439 80.1759234,22.950135 80.3809515,22.7204934 C80.5859795,22.4908519 80.6518506,22.1687769 80.5534478,21.8770774 C80.455045,21.5853779 80.207537,21.3690192 79.9053,21.3105 L53.1103,15.8296 C52.8093565,15.7647561 52.4967766,15.866565 52.2917485,16.0962066 C52.0867205,16.3258481 52.0208494,16.6479231 52.1192522,16.9396226 C52.217655,17.2313221 52.465163,17.4476808 52.7674,17.5062 L52.7675,17.5062 Z" id="Path" fill="#5D3A2D" fill-rule="nonzero"></path>
            <path d="M50.712,24.8771 L76.7673,30.1571 C77.0669208,30.2178352 77.3761837,30.114111 77.5785922,29.8849993 C77.7810008,29.6558877 77.8458045,29.3361961 77.7485923,29.0463493 C77.65138,28.7565025 77.4069208,28.5405351 77.1073,28.4798 L51.0519,23.2003 C50.7522792,23.1395648 50.4430164,23.243289 50.2406078,23.4724007 C50.0381992,23.7015123 49.9733956,24.0212039 50.0706078,24.3110507 C50.16782,24.6008975 50.4122792,24.8168648 50.7119,24.8776 L50.712,24.8771 Z" id="Path" fill="#5D3A2D" fill-rule="nonzero"></path>
            <path d="M45.656,30.1539 L75.196,36.6101 C75.656218,36.7075595 76.1088039,36.4152452 76.209246,35.9556689 C76.3096881,35.4960926 76.0203152,35.0416205 75.5614,34.9382 L46.0214,28.482 C45.7218773,28.4145 45.4091489,28.5126465 45.2019083,28.7391889 C44.9946678,28.9657312 44.9246848,29.2859409 45.0185208,29.5782847 C45.1123568,29.8706285 45.355627,30.0902906 45.656,30.1539 L45.656,30.1539 Z" id="Path" fill="#5D3A2D" fill-rule="nonzero"></path>
            <path d="M41.8162,29.9646 L75.5744,37.8046 C75.8735559,37.87247 76.1134948,38.0952822 76.2032927,38.3886028 C76.2930906,38.6819233 76.2190075,39.0008711 76.0091169,39.2245819 C75.7992263,39.4482927 75.4856436,39.5425366 75.1872,39.4716 L40.5521,31.4279 C40.3236956,31.3748673 40.12706,31.2304306 40.0081431,31.0283419 C39.8892263,30.8262533 39.8584478,30.5842197 39.923,30.3588 L47.2863,4.6545 C47.3692167,4.35911825 47.603923,4.13073111 47.9014572,4.0559051 C48.1989915,3.98107909 48.5138152,4.07126655 48.7265994,4.29228335 C48.9393836,4.51330015 49.0175611,4.83131904 48.9315,5.1258 L41.8162,29.9646 Z" id="Path" fill="#FFFFFF" fill-rule="nonzero"></path>
            <path d="M80.5448,44.2092 L92.3192,9.1433 C92.4685859,8.69559598 92.2272702,8.21147318 91.7798445,8.06125574 C91.3324188,7.91103829 90.8478485,8.15145416 90.6968,8.5986 L78.9227,43.6644 C78.7733141,44.112104 79.0146298,44.5962268 79.4620555,44.7464443 C79.9094812,44.8966617 80.3940515,44.6562458 80.5451,44.2091 L80.5448,44.2092 Z" id="Path" fill="#FFFFFF" fill-rule="nonzero"></path>
            <path d="M85.7926,40.0146 C90.1884833,39.1997581 93.9767286,36.433294 96.0909,32.494 C98.0903,28.588 98.3976,23.3178 95.8809,16.9048 C95.7082558,16.46485 95.21165,16.2481558 94.7717,16.4208 C94.33175,16.5934442 94.1150558,17.09005 94.2877,17.53 C96.5777,23.3657 96.3865,28.16 94.5671,31.7142 C92.6844723,35.194793 89.3237542,37.6327151 85.4307,38.3419 C85.131883,38.4064757 84.8902155,38.6255631 84.7967313,38.9166341 C84.7032471,39.207705 84.7721486,39.5265389 84.9774813,39.7530341 C85.182814,39.9795293 85.4933831,40.0792758 85.7922,40.0147 L85.7926,40.0146 Z" id="Path" fill="#DBD0D3" fill-rule="nonzero"></path>
            <path d="M27.4203,64.3371 C27.4203,64.3371 27.5542,67.7555 27.5493,69.0791 C27.6443341,70.0776463 27.4627374,71.083088 27.0244,71.9853 C26.6558381,72.5328329 26.1564011,72.9796795 25.5714,73.2853 C25.3190776,73.4480525 25.2400162,73.7808441 25.3921793,74.0396903 C25.5443423,74.2985365 25.8735741,74.3913125 26.1385,74.25 C26.8830349,73.8529258 27.5157687,73.275006 27.9785,72.5694 C28.5278107,71.4939324 28.7667375,70.2867288 28.6685,69.0831 C28.6734,67.7461 28.5385,64.2931 28.5385,64.2931 C28.5389218,64.0875379 28.4266862,63.8982681 28.2461152,63.8000335 C28.0655442,63.7017988 27.8456669,63.7103918 27.6733131,63.822419 C27.5009592,63.9344462 27.403837,64.1318978 27.4203,64.3368 L27.4203,64.3371 Z" id="Path" fill="#867076" fill-rule="nonzero"></path>
            <polygon id="Path" fill="#E2DADC" fill-rule="nonzero" points="0.263 47.842 0.488 56.212 44.715 69.904 79.431 54.085 79.551 47.842 33.602 36.62"></polygon>
            <path d="M0.1794,47.5928 C0.069775783,47.6296698 -0.00293386346,47.7337841 0.000102535218,47.8494 L0.2245,56.2187 C0.227548432,56.3314991 0.302108048,56.4298261 0.4099,56.4632 L44.6376,70.1554 C44.6992463,70.1745289 44.7657775,70.1702929 44.8245,70.1435 L79.54,54.3244 C79.6321855,54.282332 79.6920656,54.1911121 79.694,54.0898 L79.8148483,47.8471 C79.8171466,47.7238876 79.733718,47.6155301 79.614,47.5863 L33.6648,36.3638 C33.6163564,36.3519743 33.5655496,36.3541591 33.5183,36.3701 L0.1794,47.5928 Z M0.5318,48.0299 L0.7459,56.016 L44.6975,69.6228 L79.1708,53.9139 L79.2839,48.0482 L33.6139,36.8936 L0.5318,48.0299 Z" id="Shape"></path>
            <polygon id="Path" fill="#EBE5E7" fill-rule="nonzero" points="79.551 47.842 44.923 61.563 0.263 47.842 33.602 36.62"></polygon>
            <path d="M79.6481,48.0871 C79.7547299,48.0449488 79.8218034,47.9386183 79.8145459,47.8242309 C79.8060337,47.7098435 79.7250049,47.6137219 79.6136,47.5866 L33.6648,36.3638 C33.6163564,36.3519743 33.5655496,36.3541591 33.5183,36.3701 L0.1794,47.5928 C0.0709837319,47.6292488 -0.00150019434,47.7315231 4.65675346e-06,47.8458921 C0.00155694608,47.9602611 0.0767483369,48.0605617 0.1861,48.0941 L44.8461,61.8146 C44.9033076,61.8321396 44.9647832,61.8296707 45.0204,61.8076 L79.6481,48.0871 Z M1.1226,47.8309 L44.9118,61.2842 L78.6858,47.9021 L33.6142,36.8935 L1.1226,47.8309 Z" id="Shape"></path>
            <g id="Group" transform="translate(8.000000, 24.000000)">
                <polygon id="Path" fill="#DB51EC" fill-rule="nonzero" points="21.6509 23.995 18.6389 9.895 24.8399 4.2439 32.8848 7.5452 35.9973 20.6346 28.9512 28.4382"></polygon>
                <g id="Path" transform="translate(0.590723, 11.099600)">
                    <mask id="mask-5" fill="white">
                        <use xlink:href="#path-4"></use>
                    </mask>
                    <g id="Mask"></g>
                    <polygon fill="url(#linearGradient-6)" fill-rule="nonzero" mask="url(#mask-5)" points="4.81087651 26.2688 1.79887651 12.1688 7.99987651 6.5178 16.0447765 9.8191 19.1572765 22.9085 12.1110765 30.7121"></polygon>
                </g>
                <polygon id="Path" fill="#DFB3DE" fill-rule="nonzero" points="2.3896 23.2683 8.4271 24.3871 8.5906 17.6171"></polygon>
                <path d="M4.647,21.8971 L8.9838,18.2745 C9.13046633,18.1545845 9.20141599,17.9651291 9.16959631,17.7783719 C9.13777662,17.5916147 9.0080924,17.4363432 8.82999145,17.3717616 C8.6518905,17.3071799 8.45282598,17.3432429 8.3087,17.4662 L3.9719,21.0888 C3.82523367,21.2087155 3.75428401,21.3981709 3.78610369,21.5849281 C3.81792338,21.7716853 3.9476076,21.9269568 4.12570855,21.9915384 C4.3038095,22.0561201 4.50287402,22.0200571 4.647,21.8971 L4.647,21.8971 Z" id="Path" fill="#FFFFFF" fill-rule="nonzero"></path>
                <polygon id="Path" fill="url(#linearGradient-7)" fill-rule="nonzero" points="31.6637 29.3402 41.0937 1.4758 50.7937 0.1199 56.3677 8.604 47.7004 35.561 35.7674 38.4337"></polygon>
                <polygon id="Path" fill="#8F288F" fill-rule="nonzero" points="56.3669 8.6039 51.3536 5.3271 41.7916 28.0729 41.1716 37.9552 49.0083 34.0613"></polygon>
                <polygon id="Path" fill="#E75CFB" fill-rule="nonzero" points="18.5348 32.4104 5.9475 17.1026 7.5563 9.2795 14.9948 9.0321 28.5528 24.7521 25.7928 33.3162"></polygon>
                <polygon id="Path" fill="url(#linearGradient-8)" fill-rule="nonzero" points="5.9475 17.1026 13.9156 13.0226 26.5626 30.7396 18.7103 32.4655"></polygon>
                <polygon id="Path" fill="url(#linearGradient-9)" fill-rule="nonzero" points="39.9048 23.4981 27.3181 8.1903 28.9269 0.3671 36.3648 0.1199 49.9228 15.8399 47.1628 24.404"></polygon>
                <polygon id="Path" fill="#8F288F" fill-rule="nonzero" points="27.3181 8.1903 34.8351 4.2383 48.2763 22.9537 38.3557 23.795"></polygon>
                <polygon id="Path" fill="#9E1DA3" fill-rule="nonzero" points="18.6389 9.8951 26.5626 13.0225 28.9512 28.4384 21.8232 24.0999"></polygon>
                <g id="Path-2" transform="translate(22.236256, 7.450406)">
                    <g id="Mask" transform="translate(0.000000, -0.000000)"></g>
                    <mask id="mask-12" fill="white">
                        <use xlink:href="#path-11"></use>
                    </mask>
                    <use id="Mask" fill="url(#linearGradient-10)" fill-rule="nonzero" xlink:href="#path-11"></use>
                </g>
                <polygon id="Path" fill="url(#linearGradient-13)" fill-rule="nonzero" points="42.3615 35.0214 47.4679 18.8402 53.8331 16.3412 57.4843 21.563 52.5359 38.633 45.1013 40.6519"></polygon>
                <mask id="mask-15" fill="white">
                    <use xlink:href="#path-14"></use>
                </mask>
                <g id="Mask"></g>
                <polygon id="Path" fill="#E879F6" fill-rule="nonzero" mask="url(#mask-15)" points="22.8441 35.5701 27.4928 14.5045 35.2728 10.6245 40.4828 16.8272 36.1348 39.0011 26.9465 42.3931"></polygon>
                <polygon id="Path" fill="url(#linearGradient-16)" fill-rule="nonzero" mask="url(#mask-15)" points="26.9465 42.3931 31.8048 19.3054 40.6925 17.0243 36.4535 38.8455"></polygon>
                <polygon id="Path" fill="#F4D9F7" fill-rule="nonzero" mask="url(#mask-15)" points="35.2728 10.6245 27.4928 14.5045 31.6637 18.5363"></polygon>
                <polygon id="Path" fill="#F4D9F7" fill-rule="nonzero" mask="url(#mask-15)" points="36.3648 0.1198 28.9269 0.367 34.5858 3.873"></polygon>
                <polygon id="Path" fill="#F4D9F7" fill-rule="nonzero" mask="url(#mask-15)" points="50.793 0.1198 41.093 1.4757 51.353 5.3268"></polygon>
                <polygon id="Path" fill="#F4D9F7" fill-rule="nonzero" mask="url(#mask-15)" points="14.9948 9.0321 7.5569 9.2795 14.1641 12.2616"></polygon>
                <polygon id="Path" fill="#F8CBFF" fill-rule="nonzero" mask="url(#mask-15)" points="47.4679 18.8402 52.8548 22.7439 53.8334 16.3412"></polygon>
            </g>
            <polygon id="Path" fill="#C0AFB4" fill-rule="nonzero" points="79.551 47.842 44.923 59.652 44.715 69.904 79.431 54.085"></polygon>
            <path d="M79.8148472,47.8471 C79.8164232,47.7612867 79.7761187,47.680068 79.7067974,47.6294606 C79.637476,47.5788185 79.5478391,47.5652096 79.4666,47.5929 L44.838,59.4023 C44.7332346,59.4380562 44.6620226,59.5355232 44.6598,59.6462 L44.4521446,69.8986 C44.4503463,69.9890997 44.4951099,70.0742067 44.5707308,70.1239572 C44.6463516,70.1737078 44.7422263,70.1811259 44.8246,70.1436 L79.54,54.3244 C79.6321855,54.282332 79.6920656,54.1911121 79.694,54.0898 L79.8148472,47.8471 Z M45.1825,59.8412 L44.9871,69.4912 L79.1708,53.9139 L79.2808,48.2129 L45.1825,59.8412 Z" id="Shape"></path>
            <path d="M44.6788,60.8088 L76.812,47.7719 C77.2499342,47.5942576 77.7489576,47.8052658 77.9266,48.2432 C78.1042424,48.6811342 77.8932342,49.1801576 77.4553,49.3578 L45.0372,62.5104 C44.8528605,62.5851631 44.6482328,62.5933666 44.4585,62.5336 L6.9997,50.741 C6.55112523,50.5974215 6.30291265,50.1183322 6.44434417,49.6690759 C6.58577569,49.2198196 7.06367244,48.9693187 7.5136,49.1086 L44.6788,60.8088 Z" id="Path" fill="#FFFFFF" fill-rule="nonzero"></path>
            <path d="M3.7933,55.0596 L3.7933,78.5242 C3.79336313,80.2542172 4.914082,81.7848683 6.5633,82.3074 L37.1288,91.9936 C37.7803946,92.2000737 38.4913042,92.0851988 39.0447076,91.6840109 C39.5981109,91.282823 39.9283853,90.6428953 39.9348,89.9594 C40.001,82.9268 40.1639,65.6039 40.1639,65.6039 L44.9231,66.9839 L44.594,101.9906 L1.5112,88.0078 C0.866943786,87.7987049 0.4307,87.198438 0.4307,86.5211 L0.4307,54.0848 L3.7933,55.0596 Z" id="Path" fill="#E2DADC" fill-rule="nonzero"></path>
            <path d="M74.7232,55.8678 L74.7232,74.4232 C74.7232,74.8957901 75.1063099,75.2789 75.5789,75.2789 C76.0514901,75.2789 76.4346,74.8957901 76.4346,74.4232 L76.4346,55.8678 C76.4346,55.3952099 76.0514901,55.0121 75.5789,55.0121 C75.1063099,55.0121 74.7232,55.3952099 74.7232,55.8678 L74.7232,55.8678 Z" id="Path" fill="#867076" fill-rule="nonzero"></path>
            <path d="M3.5085,57.5852 L3.5085,76.1408 C3.5085,76.6133901 3.89160994,76.9965 4.3642,76.9965 C4.83679006,76.9965 5.2199,76.6133901 5.2199,76.1408 L5.2199,57.5852 C5.2199,57.1126099 4.83679006,56.7295 4.3642,56.7295 C3.89160994,56.7295 3.5085,57.1126099 3.5085,57.5852 L3.5085,57.5852 Z" id="Path" fill="#867076" fill-rule="nonzero"></path>
            <path d="M72.4548,78.4153 L50.8229,90.1066 C50.4071401,90.3312971 50.252253,90.85049 50.4769501,91.26625 C50.7016471,91.6820099 51.22084,91.836897 51.6366,91.6122 L73.2683,79.9209 C73.68406,79.6962029 73.8389471,79.17701 73.61425,78.76125 C73.3895529,78.34549 72.87036,78.1906029 72.4546,78.4153 L72.4548,78.4153 Z" id="Path" fill="#D6CBCE" fill-rule="nonzero"></path>
            <path d="M7.132,83.3849 C4.2344,82.7678 3.4872,80.0863 3.5085,76.7315 C3.51042923,76.4257878 3.67530741,76.1443274 3.94102653,75.993142 C4.20674565,75.8419567 4.53293666,75.8440152 4.79672654,75.998542 C5.06051643,76.1530689 5.22182924,76.4365878 5.2199,76.7423 C5.18463332,77.7239816 5.28051269,78.70598 5.505,79.6623 C5.6891331,80.697137 6.48911154,81.5131142 7.5201,81.7177 C7.54676667,81.7231 7.57293333,81.7297667 7.5986,81.7377 L38.8186,91.2544 C39.2666927,91.3952161 39.5175202,91.8709029 39.3805907,92.3201986 C39.2436612,92.7694942 38.7701649,93.0244326 38.3197,92.8914 L7.132,83.3849 Z" id="Path" fill="#FFFFFF" fill-rule="nonzero"></path>
            <path d="M74.7232,74.4154 C74.8251271,76.0786097 73.9373886,77.645675 72.4584,78.4133 C72.041425,78.635926 71.883874,79.154425 72.1065,79.5714 C72.329126,79.988375 72.847625,80.145926 73.2646,79.9233 C75.3150572,78.8812825 76.5579579,76.7279277 76.4346,74.4312 C76.4388526,73.95861 76.05919,73.5720526 75.5866,73.5677646 C75.11401,73.5635474 74.7274526,73.94321 74.7232,74.4158 L74.7232,74.4154 Z" id="Path" fill="#FFFFFF" fill-rule="nonzero"></path>
            <path d="M43.8597,61.7171 L43.8597,93.0895 C43.8597,93.5620901 44.2428099,93.9452 44.7154,93.9452 C45.1879901,93.9452 45.5711,93.5620901 45.5711,93.0895 L45.5711,61.7171 C45.5711,61.24451 45.18799,60.8614001 44.7154,60.8614001 C44.24281,60.8614001 43.8597,61.24451 43.8597,61.7171 L43.8597,61.7171 Z" id="Path" fill="#FFFFFF" fill-rule="nonzero"></path>
            <path d="M14.338,55.1411 L27.4592,61.0859 L27.5953,70.1598 C27.3739,73.2287 25.2069,75.734 20.0184,74.1498 C16.7859,73.1627 14.7405,70.9782 14.5428,67.8721 L14.338,55.1411 Z" id="Path" fill="#E2DADC" fill-rule="nonzero"></path>
            <path d="M14.6911,54.3617 C14.4240291,54.2406679 14.113584,54.2648092 13.8684344,54.4256734 C13.6232848,54.5865376 13.4775712,54.8617221 13.4821883,55.1549 L13.6871,67.8859 L13.6887,67.9265 C13.9096,71.3955 16.1587,73.8659 19.7687,74.9682 C22.6973,75.8625 24.7694,75.5282 26.1443,74.6118 C27.5572911,73.5898434 28.4102117,71.9651974 28.449,70.2218 L28.3148,61.073 C28.3098254,60.7417367 28.1140786,60.4431108 27.8123,60.3064 L14.6911,54.3617 Z M26.6119,61.6417 L15.2148,56.4781 L15.3974,67.8346 C15.5783,70.5687 17.4184,72.4614 20.2674,73.3314 C22.5274,74.0214 24.1326,73.8952 25.1939,73.1878 C26.1640494,72.4560955 26.736368,71.3129381 26.7409,70.0978 L26.6119,61.6417 Z" id="Shape"></path>
            <path d="M19.1139,66.7153 C18.1515366,65.7912354 17.5889314,64.5273029 17.5464,63.1938 C17.4621609,62.3206814 17.8327562,61.4655849 18.5274909,60.9300703 C19.2222257,60.3945557 20.1434942,60.2538596 20.9664,60.5576 C22.9565179,61.2517842 24.315232,63.0978872 24.3864,65.2044 C24.46637,66.315389 23.8386495,67.3565176 22.8188,67.8044 L22.8188,69.3277 C22.8648092,69.800744 22.6641599,70.2641749 22.2877198,70.5543132 C21.9112796,70.8444516 21.4120295,70.9204626 20.9663,70.7555 L20.9663,70.7555 C19.8880899,70.3799205 19.1519577,69.3798139 19.1138,68.2387 L19.1139,66.7153 Z" id="Path" fill="#BAA7AB" fill-rule="nonzero"></path>
            <path d="M18.2583,67.0579 C17.2854169,66.0019499 16.7284879,64.6290089 16.6908,63.1937 C16.6450467,62.0524968 17.139958,60.9565027 18.0263,60.2362 C18.9413835,59.5595782 20.1293858,59.3728793 21.2079,59.7362 C23.5528065,60.5507648 25.1557358,62.7230585 25.2425,65.2039 C25.3029575,66.4470493 24.7082237,67.6311295 23.6749,68.3249 L23.6749,69.3272 C23.701173,70.0673089 23.3765285,70.7763892 22.7991,71.2401 C22.2044214,71.6845287 21.4299452,71.8099418 20.7254,71.5759 L20.7254,71.5759 C19.2925174,71.0797661 18.3122939,69.7534903 18.2585,68.2381 L18.2583,67.0579 Z M19.9697,66.7152 C19.969594,66.4857695 19.8773594,66.2659917 19.7137,66.1052 C18.9131919,65.343314 18.4425146,64.298485 18.4023,63.1941 C18.3625335,62.5848602 18.6100241,61.9920891 19.0712,61.592 C19.5553116,61.2566428 20.172101,61.1771858 20.7254,61.3789 C22.3609454,61.9525113 23.4756817,63.4724763 23.5313,65.2048 C23.6031375,65.9620189 23.1931345,66.6831621 22.5057,67.0087 C22.1786567,67.1375961 21.9636971,67.4533726 21.9637,67.8049 L21.9637,69.3282 C21.983904,69.5363718 21.9066264,69.7421747 21.7544,69.8856 C21.5909474,69.9890728 21.3877226,70.0076764 21.2082,69.9356 L21.2082,69.9356 C20.4848173,69.6803652 19.9928679,69.0065522 19.9701,68.2398 L19.9697,66.7152 Z" id="Shape"></path>
            <path d="M19.7117,66.103 C18.6148327,65.1166484 18.1817177,63.5881442 18.5981,62.173 C18.7045249,61.7158753 18.4228681,61.2583378 17.9667979,61.1474811 C17.5107276,61.0366244 17.050478,61.3138272 16.9352,61.7688 C16.3479702,63.7715837 16.9628827,65.9336176 18.5162,67.3276 C18.8543916,67.6577282 19.3961718,67.6511916 19.7263,67.313 C20.0564282,66.9748084 20.0498916,66.4330282 19.7117,66.1029 L19.7117,66.103 Z" id="Path" fill="#FFFFFF" fill-rule="nonzero"></path>
            <path d="M18.6348,69.7324 C18.8886758,70.7897363 19.8087919,71.5534327 20.8948,71.6082 C21.3657608,71.6476055 21.7794945,71.2977608 21.8189,70.8268 C21.8583055,70.3558392 21.5084608,69.9421055 21.0375,69.9027 C20.6530034,69.8675484 20.3375491,69.5834359 20.2625,69.2047 C20.1682533,68.9139037 19.9260278,68.6954768 19.6270675,68.6316986 C19.3281072,68.5679205 19.0178312,68.6684805 18.8131175,68.8954986 C18.6084038,69.1225168 18.5403533,69.4415037 18.6346,69.7323 L18.6348,69.7324 Z" id="Path" fill="#FFFFFF" fill-rule="nonzero"></path>
            <path d="M21.0458,60.5818 C22.994736,61.3013884 24.3150012,63.1281043 24.3868,65.2044 C24.46677,66.315389 23.8390495,67.3565176 22.8192,67.8044 L22.8192,69.3277 C22.8228607,69.5846056 22.7699069,69.8391659 22.6641,70.0733 C21.9956545,69.5649758 21.5905803,68.7835307 21.5605,67.9443 L21.5605,66.4212 C20.5981203,65.4970961 20.0354847,64.2331401 19.9929,62.8996 C19.947027,62.0019314 20.3395678,61.1378121 21.0458,60.5818 L21.0458,60.5818 Z" id="Path" fill="#534246" fill-rule="nonzero"></path>
            <path d="M20.7048,66.7637 C19.7318883,65.7077597 19.1749244,64.3348202 19.1372,62.8995 C19.0878065,61.727311 19.6119497,60.6044134 20.5422,59.8895 C20.762351,59.729267 21.0456188,59.6833739 21.3051,59.7659 C23.6,60.6109244 25.1559708,62.7598982 25.2425,65.2039 C25.3029575,66.4470493 24.7082237,67.6311295 23.6749,68.3249 L23.6749,69.3272 C23.6787952,69.7095894 23.5982461,70.0881256 23.439,70.4358 C23.329176,70.6703468 23.1190133,70.8425173 22.8674403,70.9040358 C22.6158673,70.9655543 22.3499683,70.9097978 22.1443,70.7524 C21.2677172,70.0795774 20.7393422,69.0488883 20.7048,67.9444 L20.7048,66.7637 Z M21.2382,61.5802 C20.9678844,61.9657069 20.8309353,62.4289811 20.8482,62.8995 C20.8884779,64.0038702 21.359145,65.0486764 22.1596,65.8106 C22.3234337,65.9715365 22.415746,66.1915436 22.4158,66.4212 L22.4158,67.0503 C22.444596,67.0343228 22.4744294,67.0202914 22.5051,67.0083 C23.1925345,66.6827621 23.6025375,65.9616189 23.5307,65.2044 C23.4742662,63.6718814 22.5988278,62.2878455 21.2383,61.5802 L21.2382,61.5802 Z" id="Shape"></path>
            <polygon id="Path" points="71.91 46.354 43.673 57.542 7.257 46.354 13.49 30.973 39.51 10.466 71.41 29.29"></polygon>
            <line x1="44.7892" y1="30.9592" x2="53.5433" y2="43.1483" id="Path"></line>
            <path d="M44.0942,31.4582 L52.8483,43.6471 C53.1240006,44.0309379 53.6586621,44.1186005 54.0425,43.8429 C54.4263379,43.5671994 54.5140005,43.0325379 54.2383,42.6487 L45.4842,30.4599 C45.3069154,30.2088442 45.0086095,30.0721474 44.7027001,30.1017828 C44.3967906,30.1314181 44.1302709,30.3228329 44.0044734,30.6032502 C43.8786759,30.8836674 43.9129254,31.2100098 44.0942,31.4582 L44.0942,31.4582 Z" id="Path" fill="#FFFFFF" fill-rule="nonzero"></path>
            <path d="M60.1494,46.5446 L59.0032,50.1207 C58.8589157,50.5708121 59.106838,51.0526655 59.55695,51.1969499 C60.0070621,51.3412343 60.4889156,51.093312 60.6332,50.6432 L61.7792,47.0671 C61.9234568,46.6169879 61.675512,46.1351568 61.2254,45.9909 C60.7752879,45.8466433 60.2934568,46.094588 60.1492,46.5447 L60.1494,46.5446 Z" id="Path" fill="#931F95" fill-rule="nonzero"></path>
            <path d="M70.3275,43.8033 L66.6229,43.9169 C66.1505309,43.9313699 65.7793301,44.3260309 65.7938,44.7984 C65.8082699,45.2707691 66.2029309,45.6419699 66.6753,45.6275 L70.38,45.5138 C70.844745,45.4895374 71.2048712,45.0982663 71.19059,44.6331075 C71.1763088,44.1679488 70.7928581,43.7995068 70.3275,43.8038 L70.3275,43.8033 Z" id="Path" fill="#6A1068" fill-rule="nonzero"></path>
            <path d="M15.4958,40.9015 L22.1558,37.4915 C22.3252354,37.4068729 22.4361752,37.2377775 22.44634,37.0486565 C22.4565048,36.8595354 22.3643286,36.679523 22.2049401,36.5772225 C22.0455516,36.474922 21.8435047,36.4660929 21.6758,36.5541 L15.0158,39.9641 C14.7600967,40.0982865 14.6601591,40.4133703 14.7917754,40.6704059 C14.9233917,40.9274416 15.2374578,41.0305329 15.4958,40.9015 L15.4958,40.9015 Z" id="Path" fill="#FFFFFF" fill-rule="nonzero"></path>
            <path d="M29.4773,35.5106 L34.3936,37.4506 C34.5467062,37.5110136 34.7204124,37.4851569 34.8492852,37.3827699 C34.978158,37.2803829 35.0426186,37.1170205 35.0183852,36.9542199 C34.9941518,36.7914193 34.8849062,36.6539136 34.7318,36.5935 L29.8157,34.6535 C29.6625938,34.5930685 29.4888781,34.6189087 29.3599898,34.7212868 C29.2311015,34.8236649 29.1666219,34.9870272 29.1908398,35.1498368 C29.2150577,35.3126464 29.3242938,35.4501685 29.4774,35.5106 L29.4773,35.5106 Z" id="Path" fill="#FFFFFF" fill-rule="nonzero"></path>
            <path d="M37.0521,40.784 L39.3693,43.6571 C39.5673026,43.8829305 39.9082031,43.9123502 40.1419684,43.7237814 C40.3757337,43.5352125 40.4191175,43.1958063 40.2403,42.9545 L37.9231,40.0818 C37.7250974,39.8559695 37.3841969,39.8265498 37.1504316,40.0151186 C36.9166663,40.2036875 36.8732825,40.5430937 37.0521,40.7844 L37.0521,40.784 Z" id="Path" fill="#FFFFFF" fill-rule="nonzero"></path>
            <path d="M46.9126,42.3646 L48.6443,41.9202 C49.1004208,41.8013662 49.3745557,41.3360501 49.2574205,40.8794901 C49.1402854,40.4229301 48.6759928,40.1470651 48.219,40.2625 L46.4871,40.7071 C46.1909804,40.7831083 45.9579046,41.0113207 45.8756698,41.3057719 C45.7934351,41.6002231 45.874535,41.9161789 46.0884198,42.1346219 C46.3023047,42.3530649 46.6164804,42.4408083 46.9126,42.3648 L46.9126,42.3646 Z" id="Path" fill="#FFFFFF" fill-rule="nonzero"></path>
            <path d="M38.5569,45.0803 L36.6503,54.1409 C36.5558249,54.6021237 36.8516809,55.0530293 37.3123917,55.1499747 C37.7731026,55.2469201 38.2255871,54.9534847 38.325,54.4933 L40.2316,45.4327 C40.296384,45.1328132 40.1956605,44.8211933 39.9676082,44.6159587 C39.739556,44.4107241 39.4190804,44.3432878 39.1276568,44.4392112 C38.8362331,44.5351347 38.6184663,44.7797361 38.5569,45.0803 L38.5569,45.0803 Z" id="Path" fill="#FFFFFF" fill-rule="nonzero"></path>
            <path d="M58.3172,29.8956 L51.5595,27.1725 C51.1211516,26.9957689 50.9090689,26.4971484 51.0858,26.0588 C51.2625311,25.6204516 51.7611516,25.4083689 52.1995,25.5851 L59.7858,28.6422 C60.0021957,28.7294239 60.1735922,28.9012259 60.2603044,29.1178271 C60.3470166,29.3344283 60.3415246,29.5770444 60.2451,29.7895 L57.2424,36.4058 C57.1174582,36.6864 56.8517064,36.8785083 56.5460803,36.9091597 C56.2404543,36.9398111 55.9418456,36.8043028 55.7636696,36.5541026 C55.5854936,36.3039025 55.5550876,35.9773981 55.684,35.6986 L58.3172,29.8956 Z" id="Path" fill="#FFFFFF" fill-rule="nonzero"></path>
            <path d="M69.9934,24.4513 L69.9934,28.8779 C69.9934,29.1869033 70.2438967,29.4374 70.5529,29.4374 C70.8619033,29.4374 71.1124,29.1869033 71.1124,28.8779 L71.1124,24.4513 C71.1124,24.1422967 70.8619033,23.8918 70.5529,23.8918 C70.2438967,23.8918 69.9934,24.1422967 69.9934,24.4513 Z" id="Path" fill="#FFFFFF" fill-rule="nonzero"></path>
            <path d="M72.514,26.105 L68.5918,26.105 C68.2827967,26.105 68.0323,26.3554967 68.0323,26.6645 C68.0323,26.9735033 68.2827967,27.224 68.5918,27.224 L72.514,27.224 C72.8230033,27.224 73.0735,26.9735033 73.0735,26.6645 C73.0735,26.3554967 72.8230033,26.105 72.514,26.105 Z" id="Path" fill="#FFFFFF" fill-rule="nonzero"></path>
            <path d="M56.7504,22.2137 L56.7504,26.6403 C56.7504,26.9493033 57.0008967,27.1998 57.3099,27.1998 C57.6189033,27.1998 57.8694,26.9493033 57.8694,26.6403 L57.8694,22.2137 C57.8694,21.9046967 57.6189033,21.6542 57.3099,21.6542 C57.0008967,21.6542 56.7504,21.9046967 56.7504,22.2137 Z" id="Path" fill="#FFFFFF" fill-rule="nonzero"></path>
            <path d="M59.271,23.8671 L55.3489,23.8671 C55.0398967,23.8671 54.7894,24.1175967 54.7894,24.4266 C54.7894,24.7356033 55.0398967,24.9861 55.3489,24.9861 L59.271,24.9861 C59.5800033,24.9861 59.8305,24.7356033 59.8305,24.4266 C59.8305,24.1175967 59.5800033,23.8671 59.271,23.8671 Z" id="Path" fill="#FFFFFF" fill-rule="nonzero"></path>
            <path d="M75.1481,12.6929 L75.1481,19.9015 C75.1481,20.2105033 75.3985967,20.461 75.7076,20.461 C76.0166033,20.461 76.2671,20.2105033 76.2671,19.9015 L76.2671,12.6929 C76.2671,12.3838967 76.0166033,12.1334 75.7076,12.1334 C75.3985967,12.1334 75.1481,12.3838967 75.1481,12.6929 L75.1481,12.6929 Z" id="Path" fill="#FFFFFF" fill-rule="nonzero"></path>
            <path d="M78.9013,15.7377 L72.514,15.7377 C72.2049967,15.7377 71.9545,15.9881967 71.9545,16.2972 C71.9545,16.6062033 72.2049967,16.8567 72.514,16.8567 L78.9013,16.8567 C79.2103033,16.8567 79.4608,16.6062033 79.4608,16.2972 C79.4608,15.9881967 79.2103033,15.7377 78.9013,15.7377 L78.9013,15.7377 Z" id="Path" fill="#FFFFFF" fill-rule="nonzero"></path>
            <path d="M59.2648,43.9691 L59.2648,48.3957 C59.2648,48.7047033 59.5152967,48.9552 59.8243,48.9552 C60.1333033,48.9552 60.3838,48.7047033 60.3838,48.3957 L60.3838,43.9691 C60.3838,43.6600967 60.1333033,43.4096 59.8243,43.4096 C59.5152967,43.4096 59.2648,43.6600967 59.2648,43.9691 Z" id="Path" fill="#FFFFFF" fill-rule="nonzero"></path>
            <path d="M61.7848,45.6228 L57.863,45.6228 C57.5539967,45.6228 57.3035,45.8732967 57.3035,46.1823 C57.3035,46.4913033 57.5539967,46.7418 57.863,46.7418 L61.7848,46.7418 C62.0938033,46.7418 62.3443,46.4913033 62.3443,46.1823 C62.3443,45.8732967 62.0938033,45.6228 61.7848,45.6228 L61.7848,45.6228 Z" id="Path" fill="#FFFFFF" fill-rule="nonzero"></path>
            <path d="M35.2579,30.1136 L35.2579,34.5401 C35.2579,34.8491033 35.5083967,35.0996 35.8174,35.0996 C36.1264033,35.0996 36.3769,34.8491033 36.3769,34.5401 L36.3769,30.1136 C36.3769,29.8045967 36.1264033,29.5541 35.8174,29.5541 C35.5083967,29.5541 35.2579,29.8045967 35.2579,30.1136 L35.2579,30.1136 Z" id="Path" fill="#FFFFFF" fill-rule="nonzero"></path>
            <path d="M37.7785,31.7671 L33.8563,31.7671 C33.5472967,31.7671 33.2968,32.0175967 33.2968,32.3266 C33.2968,32.6356033 33.5472967,32.8861 33.8563,32.8861 L37.7785,32.8861 C38.0875033,32.8861 38.338,32.6356033 38.338,32.3266 C38.338,32.0175967 38.0875033,31.7671 37.7785,31.7671 L37.7785,31.7671 Z" id="Path" fill="#FFFFFF" fill-rule="nonzero"></path>
            <path d="M39.403,26.2744 L42.4523,28.3664 C42.5880609,28.4595213 42.7631888,28.4731413 42.9117147,28.4021295 C43.0602405,28.3311178 43.1595997,28.1862626 43.1723647,28.0221295 C43.1851296,27.8579965 43.1093609,27.6995213 42.9736,27.6064 L39.9248,25.5146 C39.7149318,25.370647 39.428103,25.4240818 39.28415,25.63395 C39.140197,25.8438182 39.1936318,26.130647 39.4035,26.2746 L39.403,26.2744 Z" id="Path" fill="#FFFFFF" fill-rule="nonzero"></path>
        </g>
    </g>
</svg>