<?xml version="1.0" encoding="UTF-8"?>
<svg width="148px" height="103px" viewBox="0 0 148 103" version="1.1" xmlns="http://www.w3.org/2000/svg" xmlns:xlink="http://www.w3.org/1999/xlink">
    <title>Artboard</title>
    <defs>
        <linearGradient x1="-0.000599045534%" y1="50.0014955%" x2="99.999706%" y2="50.0014955%" id="linearGradient-1">
            <stop stop-color="#8572B4" offset="0%"></stop>
            <stop stop-color="#CAB7E4" offset="100%"></stop>
        </linearGradient>
    </defs>
    <g id="Artboard" stroke="none" stroke-width="1" fill="none" fill-rule="evenodd">
        <g id="Group-2" transform="translate(36.537000, 22.066066)">
            <path d="M65.414909,52.2205616 L69.1783921,48.676338 L85.8573674,58.2170121 C87.0299124,59.1322717 86.6756562,60.2364874 85.3588281,60.9638661 C79.0395978,64.4536413 43.5091888,79.0090346 43.5091888,79.0090346 C38.775118,66.5348964 38.1805854,54.0607582 43.5091888,41.58662 L48.016473,39.7896301 L65.414909,52.2205616 Z" id="Path" fill="url(#linearGradient-1)"></path>
            <polygon id="Path" fill="#C08C4C" points="1.56697753 27.9083627 32.7207978 14.8505425 75.7154157 25.865329 47.0933933 49.1334301"></polygon>
            <path d="M75.7152202,25.8648402 L43.6283494,41.1165267 C38.4591809,53.2172492 39.0358247,65.3179717 43.6283494,77.4187919 L75.7152202,60.0240706 L75.7152202,25.8648402 Z" id="Path" fill="#804F3A"></path>
            <polygon id="Path" fill="#9D5C3B" points="43.6280562 41.1167222 1.56697753 27.9083627 1.56697753 64.2108234 43.6280562 77.4191829"></polygon>
            <path d="M35.5564112,52.7932106 C35.4751303,52.7936603 35.3942491,52.781795 35.3165258,52.7580065 L2.98106966,43.1207526 C2.69368241,43.0350498 2.47384754,42.8025379 2.40437471,42.5108018 C2.33490189,42.2190657 2.42634568,41.9124272 2.64426011,41.7063939 C2.86217453,41.5003607 3.1734532,41.4262341 3.46084045,41.5119369 L35.7962966,51.1491908 C36.1957534,51.2682872 36.4473258,51.6624436 36.3871409,52.0749087 C36.326956,52.4873738 35.9732442,52.7932106 35.5564112,52.7932106 L35.5564112,52.7932106 Z" id="Path" fill="#6C4437" fill-rule="nonzero"></path>
            <path d="M37.2734393,46.8520751 C37.1909282,46.8518058 37.1088629,46.8399599 37.0296438,46.816884 L3.6453,36.706311 C3.21327298,36.5626393 2.97413206,36.1011524 3.10587181,35.6653388 C3.23761157,35.2295251 3.69234943,34.977787 4.13162022,35.0974953 L37.5172348,45.2079706 C37.9159508,45.3285678 38.1660562,45.7231562 38.104952,46.1352052 C38.0438478,46.5472542 37.6899943,46.8522794 37.2734393,46.8520751 L37.2734393,46.8520751 Z" id="Path" fill="#6C4437" fill-rule="nonzero"></path>
            <path d="M33.9032157,54.0526577 C33.8219348,54.0531074 33.7410536,54.0412422 33.6633303,54.0174537 L1.32728764,44.3814706 C1.03990039,44.2957678 0.820065517,44.0632558 0.750592691,43.7715198 C0.681119865,43.4797837 0.77256366,43.1731452 0.990478084,42.9671119 C1.20839251,42.7610787 1.51967118,42.686952 1.80705843,42.7726548 L34.1431011,52.408638 C34.5425579,52.5277344 34.7941303,52.9218908 34.7339454,53.3343559 C34.6737605,53.746821 34.3200487,54.0526577 33.9032157,54.0526577 L33.9032157,54.0526577 Z" id="Path" fill="#D5966E" fill-rule="nonzero"></path>
            <path d="M18.2223944,32.4211211 L31.1005449,38.255693 L31.234173,47.1609739 C31.016673,50.1730312 30.4032742,52.6945649 25.0170944,52.3660178 C20.5911404,52.0960245 18.6177067,47.9642088 18.4234719,44.9157874 L18.2223944,32.4211211 Z" id="Path" fill="#6C4437"></path>
            <path d="M16.261082,32.0077245 L29.1392326,37.8423942 L29.2726652,46.7476751 C29.0553607,49.7597324 28.3547663,50.9328638 23.0555865,51.9526211 C21.4978955,52.2523312 16.6561989,47.5510076 16.461964,44.5023908 L16.261082,32.0077245 Z" id="Path" fill="#867076"></path>
            <path d="M35.6749854,62.2675106 C35.5937045,62.2679603 35.5128233,62.256095 35.4351,62.2323065 L3.0990573,52.5963234 C2.65479511,52.4638383 2.40204979,51.9962923 2.53453483,51.5520301 C2.66701988,51.1077679 3.13456589,50.8550226 3.57882809,50.9875076 L35.9148708,60.6234908 C36.3143276,60.7425872 36.5659,61.1367436 36.5057151,61.5492087 C36.4455302,61.9616738 36.0918183,62.2675106 35.6749854,62.2675106 L35.6749854,62.2675106 Z" id="Path" fill="#D5966E" fill-rule="nonzero"></path>
            <path d="M47.8806944,54.5688783 C47.488607,54.5685959 47.1489324,54.2969474 47.0624645,53.9145133 C46.9759967,53.5320792 47.1657671,53.1407239 47.5195955,52.9717919 L74.8851034,39.917393 C75.1557622,39.7883673 75.4746956,39.8135374 75.7217645,39.983422 C75.9688334,40.1533066 76.1065022,40.4420961 76.0829123,40.7410063 C76.0593224,41.0399165 75.8780577,41.3035359 75.6073989,41.4325616 L48.2417933,54.4867649 C48.1291544,54.5410025 48.0057111,54.569073 47.8806944,54.5688783 L47.8806944,54.5688783 Z" id="Path" fill="#6C4437" fill-rule="nonzero"></path>
            <path d="M39.0855809,61.637787 C39.0043,61.6382367 38.9234188,61.6263715 38.8456955,61.6025829 L6.50965281,51.9664043 C6.22226554,51.8807015 6.00243065,51.6481896 5.93295781,51.3564535 C5.86348498,51.0647174 5.95492878,50.7580789 6.17284321,50.5520456 C6.39075765,50.3460123 6.70203634,50.2718857 6.9894236,50.3575885 L39.3254663,59.9935717 C39.7249231,60.1126681 39.9764955,60.5068245 39.9163106,60.9192896 C39.8561257,61.3317547 39.5024138,61.637591 39.0855809,61.6375784 L39.0855809,61.637787 Z" id="Path" fill="#6C4437" fill-rule="nonzero"></path>
            <path d="M46.2666,63.0249881 C45.8799168,63.0255008 45.5428624,62.7619104 45.4501688,62.3865012 C45.3574752,62.0110921 45.533105,61.620913 45.8755888,61.4413885 L73.2410966,47.1010515 C73.5080716,46.9514035 73.8352812,46.9586696 74.0953501,47.1200212 C74.355419,47.2813727 74.5072519,47.5713135 74.4917438,47.8769761 C74.4762357,48.1826388 74.2958371,48.4557235 74.020773,48.5899245 L46.6552652,62.9302616 C46.5353116,62.9928951 46.4019205,63.0254042 46.2666,63.0249881 L46.2666,63.0249881 Z" id="Path" fill="#6C4437" fill-rule="nonzero"></path>
            <path d="M40.9095506,67.842245 C40.5228674,67.8427592 40.185813,67.5791688 40.0931194,67.2037597 C40.0004258,66.8283505 40.1760556,66.4381714 40.5185393,66.258647 L67.8840472,51.9200694 C68.2929421,51.7205737 68.7863467,51.8825729 68.9974094,52.285619 C69.208472,52.6886651 69.0605937,53.1864842 68.6637236,53.4089425 L41.2984112,67.747129 C41.1784336,67.8099291 41.0449698,67.8425737 40.9095506,67.842245 L40.9095506,67.842245 Z" id="Path" fill="#B67D5F" fill-rule="nonzero"></path>
            <path d="M55.583127,52.7123609 C55.1914405,52.7127032 54.8515284,52.4422331 54.7638826,52.0604784 C54.6762369,51.6787238 54.8641356,51.2870754 55.2167494,51.1165413 L74.8798247,41.5954178 C75.2947204,41.4086322 75.7829237,41.5858399 75.9814058,41.9952689 C76.1798879,42.4046979 76.0166034,42.8977325 75.6129708,43.1077515 L55.9498955,52.6288751 C55.8355821,52.6842415 55.710142,52.7127932 55.583127,52.7123609 L55.583127,52.7123609 Z" id="Path" fill="#B67D5F" fill-rule="nonzero"></path>
            <path d="M74.0553775,29.4090638 L77.8188607,25.8648402 L77.8188607,58.8782121 C77.8188607,59.8220136 77.3021019,60.6900542 76.4724135,61.1399189 L43.5092865,79.0091324 C38.7752157,66.5349942 38.1806831,54.060856 43.5092865,41.5867178 L48.0165708,39.7897279 L48.0165708,65.9865031 C48.0165592,66.8609483 48.4808481,67.6696415 49.236017,68.1105205 C49.9911859,68.5513996 50.9236573,68.5581564 51.685136,68.1282672 L72.3516438,56.4619582 C73.4043852,55.8676131 74.0554609,54.7523798 74.0554753,53.5434503 L74.0553775,29.4090638 Z" id="Path" fill="#C0AFB4"></path>
            <polygon id="Path" fill="#E2DADC" points="-1.38915097e-14 25.865329 0.21994382 34.0794975 43.6280562 47.5175762 77.7007753 31.9914975 77.8180787 25.865329 32.7207978 14.8505425"></polygon>
            <polygon id="Path" fill="#C0AFB4" points="77.7007753 25.2152728 43.8323596 37.454902 43.6280562 47.5175762 77.7007753 31.9914975"></polygon>
            <polygon id="Path" fill="#998389" points="77.7007753 25.2152728 43.8323596 39.3307784 -1.38915097e-14 25.865329 32.7207978 14.8505425"></polygon>
            <path d="M4.09779775,21.3829717 C7.38893933,10.1649571 12.9684742,3.34562337 21.1867483,1.59780315 C25.4243326,0.632787415 29.1448045,0.327016629 33.0754449,1.90621326 L58.7987056,8.43707843 L42.1611775,33.7436189 L4.09779775,21.3829717 Z" id="Path" fill="#9D5C3B"></path>
            <path d="M44.8807584,21.3469009 C44.8200199,21.3467252 44.7595491,21.338842 44.7007955,21.3234402 L12.726536,12.9630335 C12.3467077,12.8636697 12.1193463,12.4752078 12.2187101,12.0953796 C12.3180739,11.7155513 12.7065358,11.4881899 13.086364,11.5875537 L45.0606236,19.9491335 C45.4068041,20.0391721 45.6320401,20.3725651 45.5863666,20.7273352 C45.540693,21.0821053 45.2383582,21.3475782 44.8806607,21.3469996 L44.8807584,21.3469009 Z" id="Path" fill="#7C452B" fill-rule="nonzero"></path>
            <path d="M39.7283056,21.403011 C39.6675671,21.4028353 39.6070963,21.3949521 39.5483427,21.3795503 L7.57369213,13.0199256 C7.19386388,12.9205618 6.96650251,12.5320999 7.06586629,12.1522717 C7.16523008,11.7724434 7.55369197,11.5450821 7.93352022,11.6444458 L39.9077798,20.0053413 C40.2539603,20.0953799 40.4791963,20.428773 40.4335227,20.7835431 C40.3878492,21.1383131 40.0855144,21.4037861 39.7278169,21.4032075 L39.7283056,21.403011 Z" id="Path" fill="#D5966E" fill-rule="nonzero"></path>
            <path d="M52.2760517,8.96856069 C52.2194026,8.96856069 52.1629611,8.96171403 52.1079169,8.94832562 L35.7459539,4.95170202 C35.4968466,4.89390852 35.2980078,4.70671682 35.2253012,4.46154689 C35.1525946,4.21637696 35.217236,3.95104866 35.3945624,3.76679374 C35.5718889,3.58253882 35.8345461,3.5077804 36.0823213,3.57104135 L52.4442843,7.56766494 C52.7939919,7.65252989 53.0250225,7.98546221 52.9821403,8.34275566 C52.9392581,8.70004911 52.6360069,8.96885718 52.2761494,8.96856069 L52.2760517,8.96856069 Z" id="Path" fill="#D5966E" fill-rule="nonzero"></path>
            <path d="M47.8715056,12.9630355 C47.8103278,12.9631809 47.7493956,12.9552933 47.6902719,12.9395728 L23.4009472,6.5396964 C23.1543815,6.47592875 22.9607989,6.2850799 22.8935311,6.03944605 C22.8262633,5.79381219 22.8955987,5.5309622 23.0752721,5.35046728 C23.2549455,5.16997236 23.5174764,5.0994386 23.7634146,5.16558517 L48.0531303,11.5651683 C48.398885,11.6558881 48.6234224,11.989338 48.5774625,12.3438293 C48.5315026,12.6983205 48.2293546,12.9634855 47.8718966,12.9630355 L47.8715056,12.9630355 Z" id="Path" fill="#D5966E" fill-rule="nonzero"></path>
            <path d="M52.5063573,14.7584596 C52.4460982,14.7584596 52.3860798,14.7508587 52.3277629,14.7356829 L18.8261157,6.00449977 C18.5804099,5.94044968 18.3875387,5.75018247 18.3201548,5.50536996 C18.252771,5.26055746 18.3211116,4.99839249 18.4994335,4.81763008 C18.6777554,4.63686766 18.9389672,4.56496991 19.184673,4.62902 L52.6845607,13.3602031 C53.0298324,13.450793 53.2543053,13.7834767 53.2090672,14.1375567 C53.1638292,14.4916366 52.8629233,14.7571968 52.5059663,14.7580683 L52.5063573,14.7584596 Z" id="Path" fill="#7C452B" fill-rule="nonzero"></path>
            <path d="M59.716018,11.3080822 C59.6602338,11.3082628 59.6046322,11.3016983 59.5504247,11.2885279 L25.037818,3.03721326 C24.6597255,2.94269031 24.428328,2.56125957 24.5191564,2.18226257 C24.6099849,1.80326557 24.9891391,1.56815649 25.3690045,1.6552818 L59.8812202,9.9065964 C60.2313131,9.99068032 60.463183,10.3233292 60.420935,10.6808908 C60.378687,11.0384523 60.0756757,11.3079019 59.715627,11.3080822 L59.716018,11.3080822 Z" id="Path" fill="#7C452B" fill-rule="nonzero"></path>
            <path d="M9.60020562,20.5877613 C9.52533198,20.5881299 9.45090196,20.5762423 9.37987079,20.5525616 C9.00688825,20.4308276 8.80299274,20.029992 8.92424494,19.6568526 C11.3635685,12.1689874 16.131364,6.32278292 22.349518,3.19527955 C26.2752015,1.31859481 30.7729541,1.02631108 34.9085056,2.37914135 C35.1507232,2.46100634 35.330295,2.66667451 35.3787461,2.91771975 C35.4271972,3.16876498 35.3370585,3.42648662 35.1427019,3.59260933 C34.9483454,3.75873204 34.6797327,3.80764666 34.4392921,3.7207009 C30.6659502,2.50874474 26.5731734,2.77484162 22.9885281,4.46518629 C17.1112382,7.42074247 12.596427,12.972711 10.2763618,20.0977178 C10.1806247,20.3900678 9.90783224,20.5877613 9.60020562,20.5877613 L9.60020562,20.5877613 Z" id="Path" fill="#7C452B" fill-rule="nonzero"></path>
            <path d="M58.9873685,6.93315146 L66.2632079,8.48351101 L76.3317472,21.8165054 C76.6916577,22.2947688 76.807376,22.913753 76.6445562,23.4897402 C76.4816388,24.0685543 76.0603867,24.5395991 75.5032921,24.7659031 L43.7305011,37.6643863 L1.1326618,24.8082301 C0.505355033,24.6184698 0.137093468,23.9700886 0.295408989,23.3341178 C3.26816966,11.2811964 8.1119191,3.2161009 17.7353899,0.548622247 C20.1205584,-0.11248 26.2938438,-0.172109214 28.099827,0.348131235 L28.1416652,0.360545842 L33.1880562,1.43582674 C33.3476708,1.46979363 33.4617846,1.61076497 33.461764,1.77395371 L33.461764,1.77444247 C33.4618145,1.90942662 33.4004954,2.0371131 33.2951127,2.12146486 C33.1897301,2.20581662 33.0517144,2.23768433 32.920018,2.20807393 C31.1692652,1.83915483 25.5256045,0.893298651 21.1867483,2.90505146 C13.9823663,6.2453627 10.606473,12.0695728 8.31700449,19.0462885 L38.5789281,27.8826537 C40.3023101,21.7315582 41.8978315,16.4156627 46.9652393,11.5049526 C51.2410449,7.36179753 55.2493989,6.45210989 58.9873685,6.93315146 Z" id="Path" fill="#E2DADC"></path>
            <path d="M38.5784393,28.5931211 C38.5109108,28.5931211 38.4437287,28.5834715 38.3789258,28.5644796 L8.11778427,19.7276256 C7.74382281,19.615388 7.53050666,19.2224136 7.64012623,18.8476764 C7.7497458,18.4729392 8.1412188,18.25688 8.51671348,18.3638762 L38.7778551,27.2007301 C39.1171614,27.2999258 39.3319217,27.6334914 39.2817801,27.9834262 C39.2316385,28.333361 38.9318505,28.5931211 38.5783416,28.5931211 L38.5784393,28.5931211 Z" id="Path" fill="#FFFFFF" fill-rule="nonzero"></path>
            <path d="M43.7305011,37.6643863 C45.3761697,25.345284 49.755691,13.4825897 59.5762315,9.50365933 C70.104209,5.23792225 75.985018,13.9484796 77.6674416,22.8013649 C77.7752168,23.3888883 77.4555995,23.9713356 76.9021348,24.1960043 C71.4144876,26.4258436 43.7305011,37.6643863 43.7305011,37.6643863 Z" id="Path" fill="#C0AFB4"></path>
            <path d="M52.7716584,29.293911 C52.3621546,29.4514816 51.8989297,29.3670033 51.5714106,29.0750219 C51.2438915,28.7830405 51.1069959,28.3325148 51.2167045,27.9076784 C52.9935573,20.9105324 55.0821438,17.3699256 61.2213135,14.8823121 C67.1381933,12.4849245 70.5889652,15.3521121 72.8358135,20.1235245 C72.9848946,20.4398089 72.995633,20.8038669 72.8654535,21.1283885 C72.735274,21.4529101 72.4759192,21.7086222 72.1495888,21.8341987 C68.4558034,23.2594346 57.401818,27.5124638 52.7716584,29.293911 Z" id="Path" fill="#867076"></path>
            <path d="M51.1812202,28.1328031 C51.1856681,28.0568927 51.1974866,27.9815946 51.216509,27.9079717 C52.9933618,20.9108256 55.0819483,17.3702189 61.221118,14.8826054 C62.7354861,14.2055212 64.3975809,13.9260605 66.0501067,14.0706706 C67.9857503,15.3348938 69.486802,17.162681 70.3505461,19.3071908 C70.499693,19.6234547 70.5104764,19.9875265 70.3803093,20.3120633 C70.2501422,20.6366002 69.9907706,20.8923167 69.6644191,21.0178649 C66.190773,22.3570784 56.2101135,26.1980796 51.1812202,28.1328031 Z" id="Path" fill="#804F3A"></path>
            <path d="M63.4321888,14.2017571 C64.1378417,14.0535776 64.8594735,13.9957327 65.5797202,14.0296144 C60.3694955,16.97432 55.8667079,20.621184 54.1183011,27.0027807 L51.1814157,28.1328031 C51.1858636,28.0568927 51.1976821,27.9815946 51.2167045,27.9079717 C52.9325596,21.1508088 54.9392292,17.6168492 60.6032225,15.1426279 L63.4321888,14.2017571 Z" id="Path" fill="#6C4437"></path>
            <path d="M43.7307944,35.5603548 C43.3429173,35.5603552 43.0266849,35.2493434 43.0202292,34.86152 C42.9576674,30.9425121 47.0005281,19.6707335 50.9326348,15.8992346 C51.1159843,15.7236382 51.3790858,15.6591962 51.6228316,15.7301833 C51.8665773,15.8011704 52.0539365,15.996802 52.1143327,16.2433855 C52.1747289,16.4899691 52.0989866,16.7500427 51.9156371,16.9256391 C48.1100225,20.5754357 44.387791,31.5126065 44.4412618,34.8384503 C44.4477398,35.2308844 44.1348611,35.5542668 43.742427,35.5607458 L43.7307944,35.5603548 Z" id="Path" fill="#FFFFFF" fill-rule="nonzero"></path>
            <path d="M56.1698393,11.9366296 C55.8537568,11.9370577 55.5754126,11.7285894 55.4869163,11.4251479 C55.3984201,11.1217063 55.5210623,10.7962936 55.7878213,10.6267413 C57.9049518,9.2838096 60.2361764,8.3128765 62.6806652,7.75593685 C63.0620797,7.67118505 63.4404115,7.91010328 63.5278187,8.29091809 C63.6152259,8.6717329 63.3789494,9.05172014 62.9987528,9.14177843 C60.711476,9.6620753 58.5301117,10.569977 56.5491202,11.8261683 C56.4357831,11.8983363 56.3042027,11.9366296 56.1698393,11.9366296 L56.1698393,11.9366296 Z" id="Path" fill="#FFFFFF" fill-rule="nonzero"></path>
            <path d="M43.6278607,40.3228717 C43.5462027,40.3228717 43.4649835,40.3109278 43.3867045,40.2876807 L6.48228202,29.2388762 C6.03889649,29.1049771 5.78762545,28.637383 5.92065492,28.1937357 C6.05368439,27.7500885 6.52078493,27.4979011 6.96469213,27.6300604 L43.585827,38.59382 L75.1298764,25.794947 C75.4085073,25.6795233 75.7276333,25.7223525 75.9659712,25.9071574 C76.2043091,26.0919623 76.3252639,26.3903675 76.2828671,26.6889647 C76.2404702,26.987562 76.0412313,27.2405039 75.7608708,27.3516604 L43.9430157,40.2612874 C43.8428367,40.301672 43.735873,40.3225738 43.6278607,40.3228717 L43.6278607,40.3228717 Z" id="Path" fill="#FFFFFF" fill-rule="nonzero"></path>
            <path d="M3.4644573,32.9483998 L3.4644573,55.9780818 C3.46443366,57.6760492 4.56432041,59.1783972 6.18296292,59.69132 L36.182127,69.1978784 C36.8216471,69.4005607 37.5194004,69.2878286 38.0625566,68.8940678 C38.6057127,68.5003071 38.9298565,67.8722155 38.9361169,67.2013751 C39.0011225,60.2990492 39.1609483,43.2972942 39.1609483,43.2972942 L43.8319685,44.6514638 L43.5093843,79.0095234 L1.22513596,65.2860065 C0.592799046,65.0808009 0.16461573,64.4916506 0.16461573,63.8268503 L0.16461573,31.9914975 L3.4644573,32.9483998 Z" id="Path" fill="#E2DADC"></path>
            <path d="M73.9202831,52.7931977 C73.6975679,52.7931977 73.4839373,52.7049115 73.3264538,52.547428 C73.1689703,52.3899445 73.0805545,52.1763139 73.0806841,51.9535987 L73.0806841,33.7415661 C73.0806841,33.2778684 73.4565855,32.9019672 73.9202831,32.9019672 C74.3839808,32.9019672 74.7598822,33.2778684 74.7598822,33.7415661 L74.7598822,51.9535009 C74.7600377,52.1762331 74.6716334,52.3898888 74.5141471,52.5473935 C74.3566608,52.7048981 74.1430153,52.7931977 73.9202831,52.7931977 L73.9202831,52.7931977 Z" id="Path" fill="#867076" fill-rule="nonzero"></path>
            <path d="M4.02467865,54.4786516 C3.80196343,54.4786516 3.58833277,54.3903654 3.43084929,54.2328819 C3.27336582,54.0753985 3.18495001,53.8617678 3.18507963,53.6390526 L3.18507963,35.4273133 C3.18507963,34.9636156 3.560981,34.5877144 4.02467865,34.5877144 C4.48837631,34.5877144 4.86427758,34.9636156 4.86427758,35.4273133 L4.86427758,53.6392481 C4.86435539,53.8619294 4.77591666,54.0755099 4.61843882,54.232951 C4.46096098,54.3903922 4.24735998,54.4786516 4.02467865,54.4786516 L4.02467865,54.4786516 Z" id="Path" fill="#867076" fill-rule="nonzero"></path>
            <path d="M50.0226539,68.924368 C49.63772,68.9251883 49.301523,68.6641704 49.2069183,68.291042 C49.1123135,67.9179136 49.283532,67.5282432 49.6223562,67.3455604 L70.8542663,55.8713357 C71.1184956,55.727335 71.4395689,55.7356794 71.6959618,55.8932105 C71.9523546,56.0507416 72.104892,56.3333899 72.0958393,56.6341745 C72.0867867,56.9349592 71.9175272,57.2079224 71.6521247,57.3497492 L50.4202146,68.8239739 C50.298003,68.8897161 50.161426,68.9242045 50.0226539,68.924368 Z" id="Path" fill="#D6CBCE" fill-rule="nonzero"></path>
            <path d="M53.0421404,30.0533526 C52.6382903,30.0533526 52.2916474,29.7658605 52.216987,29.3689716 C52.1423266,28.9720827 52.3608042,28.5782705 52.7370539,28.4315357 L71.0820303,21.2858054 C71.3629588,21.1695968 71.684761,21.2143311 71.9233415,21.4027577 C72.161922,21.5911842 72.2800045,21.8938629 72.2320532,22.1940726 C72.1841019,22.4942824 71.9776089,22.7451179 71.6922034,22.8498503 L53.347227,29.9955807 C53.2500213,30.0336855 53.1465479,30.0533526 53.0421404,30.0533526 Z" id="Path" fill="#EBE5E7" fill-rule="nonzero"></path>
            <path d="M37.5954371,70.1159728 C37.5124021,70.1159728 37.4298289,70.1036195 37.3503708,70.079511 L6.70916629,60.7395234 C3.14803146,60.0161526 3.17403371,55.9534481 3.18517753,54.218238 C3.18802642,53.7565649 3.5630945,53.38382 4.0247764,53.38382 L4.0299573,53.38382 C4.25271524,53.3849305 4.46587864,53.4746219 4.62241929,53.6331065 C4.77895994,53.7915911 4.8660139,54.0058451 4.86437528,54.2285998 C4.84414045,57.4084009 5.47708989,58.7773312 7.12246517,59.1136987 L37.8406011,68.4732369 C38.2376804,68.5951009 38.4859746,68.9889943 38.424671,69.3998041 C38.3633675,69.8106139 38.010893,70.1148569 37.5955348,70.115484 L37.5954371,70.1159728 Z" id="Path" fill="#FFFFFF" fill-rule="nonzero"></path>
            <path d="M71.254173,57.4503387 C70.8687707,57.450848 70.5325267,57.1888759 70.4387753,56.8150498 C70.345024,56.4412238 70.5178507,56.0515825 70.8578831,55.8701627 C72.3143276,55.1215686 73.1875682,53.579957 73.080782,51.9458762 C73.0848078,51.4851235 73.4596107,51.1138116 73.9203809,51.1140974 L73.9282011,51.1140974 C74.1509206,51.1160325 74.3637334,51.2064351 74.5197521,51.3653875 C74.6757708,51.52434 74.7621937,51.7387997 74.7599798,51.9615166 C74.8725416,54.213694 73.6547351,56.3227838 71.6479213,57.3512155 C71.5269845,57.4165565 71.3916324,57.4506298 71.254173,57.4503387 Z" id="Path" fill="#FFFFFF" fill-rule="nonzero"></path>
            <path d="M43.6278607,71.1133449 C43.4051455,71.1133449 43.1915148,71.0250587 43.0340313,70.8675752 C42.8765478,70.7100917 42.788132,70.4964611 42.7882617,70.2737458 L42.7882617,39.4833706 C42.7882617,39.0196729 43.164163,38.6437717 43.6278607,38.6437717 C44.0915583,38.6437717 44.4674596,39.0196729 44.4674596,39.4833706 L44.4674596,70.2738436 C44.4675634,70.4965419 44.3791361,70.7101474 44.2216554,70.8676097 C44.0641748,71.0250721 43.850559,71.1133449 43.6278607,71.1133449 L43.6278607,71.1133449 Z" id="Path" fill="#FFFFFF" fill-rule="nonzero"></path>
            <path d="M13.8137427,33.0283616 L26.6917955,38.8629335 L26.8254236,47.7682144 C26.6081191,50.7802717 24.4812135,53.2392436 19.3888787,51.6842897 C16.2162135,50.7154616 14.2087618,48.5714492 14.0147225,45.5230279 L13.8137427,33.0283616 Z" id="Path" fill="#E2DADC"></path>
            <path d="M18.5011854,44.3881178 C17.5566885,43.4811544 17.004521,42.2406545 16.9627517,40.9318717 C16.8800795,40.0749138 17.2438281,39.2356493 17.9257143,38.7100614 C18.6076006,38.1844734 19.5118213,38.0464056 20.3194854,38.3445503 C22.272864,39.025724 23.6065531,40.8376475 23.6764146,42.9052076 C23.7547044,43.9954385 23.1386575,45.0170297 22.1378831,45.456556 L22.1378831,46.9516852 C22.1829661,47.4159556 21.9860195,47.8707629 21.6165782,48.1555307 C21.2471369,48.4402984 20.7571751,48.5149646 20.3196809,48.3531672 L20.3196809,48.3531672 C19.2613997,47.9845238 18.5388899,47.0028816 18.5014787,45.882856 L18.5011854,44.3881178 Z" id="Path" fill="#BAA7AB"></path>
            <path d="M18.5014787,45.2276189 C18.2823035,45.2278144 18.0717746,45.1421301 17.9149618,44.9890043 C16.4078976,43.6105036 15.8072978,41.4998177 16.3628427,39.5343975 C16.4336331,39.2427845 16.6546198,39.0110892 16.9425592,38.9265889 C17.2304987,38.8420887 17.5416461,38.9176211 17.7587952,39.1247339 C17.9759443,39.3318466 18.066105,39.6390744 17.9953146,39.9306874 C17.5681714,41.3192753 17.9961977,42.8292516 19.0884843,43.7871335 C19.3330132,44.0256068 19.4087036,44.388446 19.2799142,44.7047958 C19.1511247,45.0211456 18.8435284,45.2279446 18.5019674,45.2278144 L18.5014787,45.2276189 Z" id="Path" fill="#FFFFFF" fill-rule="nonzero"></path>
            <path d="M20.3206584,49.1935481 C20.2971978,49.1935481 20.2737371,49.1922773 20.2495921,49.1909088 C19.18796,49.1263662 18.290453,48.3815616 18.0312876,47.3500279 C17.9052416,46.9141898 18.1477655,46.4569626 18.5792954,46.3168757 C19.0108254,46.1767888 19.4756628,46.4043863 19.6296438,46.831156 C19.8017865,47.3631267 20.0481236,47.4882503 20.3903562,47.5168919 C20.8388781,47.5544733 21.178024,47.9389782 21.1593038,48.3886823 C21.1405836,48.8383864 20.7706542,49.1933741 20.3205607,49.1935481 L20.3206584,49.1935481 Z" id="Path" fill="#FFFFFF" fill-rule="nonzero"></path>
            <path d="M20.3972966,38.3683043 C22.3101383,39.0745156 23.6059605,40.8673819 23.6764146,42.9052076 C23.7547044,43.9954385 23.1386575,45.0170297 22.1378831,45.456556 L22.1378831,46.9516852 C22.1415199,47.2038298 22.0895543,47.4536787 21.985682,47.6834627 C21.3296356,47.1846328 20.9320776,46.4177191 20.9025809,45.5940942 L20.9025809,44.0990627 C19.9580594,43.192067 19.4058605,41.9515404 19.3640494,40.6427189 C19.3190589,39.7618453 19.7042715,38.9139037 20.3972966,38.3683043 Z" id="Path" fill="#534246"></path>
            <path d="M8.38767978,19.5425883 C8.31280614,19.5429569 8.23837612,19.5310692 8.16734494,19.5073885 C7.79436241,19.3856546 7.5904669,18.984819 7.7117191,18.6116796 C10.1516292,11.1230324 14.9194247,5.27702337 21.1369921,2.14932449 C25.0629345,0.273631446 29.5602999,-0.0186271175 33.6959798,1.33318629 C33.9381973,1.41505128 34.1177691,1.62071946 34.1662202,1.87176469 C34.2146714,2.12280993 34.1245326,2.38053156 33.9301761,2.54665428 C33.7358196,2.71277699 33.4672068,2.76169161 33.2267663,2.67474584 C29.4535062,1.46212789 25.3604807,1.72824094 21.7760022,3.41923124 C15.8993966,6.37478742 11.3848787,11.926756 9.06383596,19.052447 C8.96813305,19.3448357 8.6953325,19.5425883 8.38767978,19.5425883 Z" id="Path" fill="#C0AFB4" fill-rule="nonzero"></path>
        </g>
    </g>
</svg>